# xmcd
#
# Track frame offsets:
#	150
#	12743
#	20566
#	36483
#	49549
#	64531
#	78037
#	91791
#	102195
#	113382
#	121344
#	133068
#	145624
#	156929
#	167913
#	179083
#	191761
#	202213
#	212290
#	222302
#
# Disc length: 3127 seconds
#
# Revision: 1
# Processed by: cddbd v1.5.2PL0 Copyright (c) Steve Scherf et al.
# Submitted via: audiograbber 1.83.01
#
DISCID=190c3514
DTITLE=Various Artist - Country Greats Vol 16
DYEAR=2002
DGENRE=Older Country
TTITLE0=The Colonials - Waltzing Mathilda
TTITLE1=Roger Miller - Dang Me
TTITLE2=Don Williams - Tears
TTITLE3=Wesley Tuttle - With Tears In My Eyes
TTITLE4=Porter Wagoner - The Cold, Hard Facts Of Life
TTITLE5=Nat Stuckey - Sweet Thang
TTITLE6=Patsy Cline - A Church, A Courtroom And Then Goodbye
TTITLE7=Charlie Walker - Pick Me Up On Your Way Down
TTITLE8=Conway Twitty - Angel's Wings
TTITLE9=Bobby and Laurie - Trouble On The Turnpike
TTITLE10=Tex Williams - A Fool Such As I
TTITLE11=Lee Conway - Lay A Little Loving On Me
TTITLE12=Porter Wagoner - Misery Loves Company
TTITLE13=Jimmy Dean - Little Black Book
TTITLE14=Connie Smith - Nobody But A Fool Would Love You
TTITLE15=Dickey Lee - Never Ending Song Of Love
TTITLE16=Hank Locklin - Let Me Be The One
TTITLE17=Jack Reno - Hitchin' A Ride
TTITLE18=Susan Raye - Pitty Pitty Patter
TTITLE19=Lynn Anderson - How Can I Unlove You
EXTD=20 cd set
EXTT0=
EXTT1=
EXTT2=
EXTT3=
EXTT4=
EXTT5=
EXTT6=
EXTT7=
EXTT8=
EXTT9=
EXTT10=
EXTT11=
EXTT12=
EXTT13=
EXTT14=
EXTT15=
EXTT16=
EXTT17=
EXTT18=
EXTT19=
PLAYORDER=
